<svg width="126" height="126" viewBox="0 0 126 126" fill="none" xmlns="http://www.w3.org/2000/svg">
<g filter="url(#filter0_d)">
<circle cx="63" cy="53" r="33" fill="white"/>
<path fill-rule="evenodd" clip-rule="evenodd" d="M63 45C63.5523 45 64 45.4477 64 46V60C64 60.5523 63.5523 61 63 61C62.4477 61 62 60.5523 62 60V46C62 45.4477 62.4477 45 63 45Z" fill="#3744BD"/>
<path fill-rule="evenodd" clip-rule="evenodd" d="M55 53C55 52.4477 55.4477 52 56 52H70C70.5523 52 71 52.4477 71 53C71 53.5523 70.5523 54 70 54H56C55.4477 54 55 53.5523 55 53Z" fill="#3744BD"/>
</g>
<defs>
<filter id="filter0_d" x="0" y="0" width="126" height="126" filterUnits="userSpaceOnUse" color-interpolation-filters="sRGB">
<feFlood flood-opacity="0" result="BackgroundImageFix"/>
<feColorMatrix in="SourceAlpha" type="matrix" values="0 0 0 0 0 0 0 0 0 0 0 0 0 0 0 0 0 0 127 0"/>
<feOffset dy="10"/>
<feGaussianBlur stdDeviation="15"/>
<feColorMatrix type="matrix" values="0 0 0 0 0.6375 0 0 0 0 0.6375 0 0 0 0 0.6375 0 0 0 0.44 0"/>
<feBlend mode="normal" in2="BackgroundImageFix" result="effect1_dropShadow"/>
<feBlend mode="normal" in="SourceGraphic" in2="effect1_dropShadow" result="shape"/>
</filter>
</defs>
</svg>
